<svg width="38" height="35" viewBox="0 0 38 35" fill="none" xmlns="http://www.w3.org/2000/svg">
<path fill-rule="evenodd" clip-rule="evenodd" d="M0 9C0 8.44771 0.447715 8 1 8H37C37.5523 8 38 8.44771 38 9V13.8C38 14.0662 37.9131 14.3132 37.8497 14.4686C37.7742 14.6534 37.6714 14.8506 37.5488 15.0496C37.3029 15.4486 36.9485 15.9015 36.4899 16.3304C35.5716 17.1892 34.1795 18 32.3636 18C30.3629 18 28.8937 16.995 27.9908 16.0169C27.0501 17.0021 25.5034 18 23.3636 18C21.2239 18 19.6772 17.0021 18.7365 16.0169C17.8335 16.995 16.3644 18 14.3636 18C12.2931 18 10.6992 16.9198 9.72727 15.9247C8.75531 16.9198 7.16147 18 5.09091 18C3.6258 18 2.37371 17.4297 1.48639 16.6521C0.630072 15.9017 0 14.8494 0 13.8V9ZM2 10V13.8C2 14.084 2.21538 14.6316 2.80452 15.1479C3.36265 15.637 4.15602 16 5.09091 16C7.00163 16 8.42242 14.5478 8.87495 13.8103C9.05681 13.514 9.37956 13.3333 9.72727 13.3333C10.075 13.3333 10.3977 13.514 10.5796 13.8103C11.0321 14.5478 12.4529 16 14.3636 16C16.2464 16 17.4775 14.5809 17.8369 13.878C18.0079 13.5437 18.3518 13.3333 18.7273 13.3333C19.1028 13.3333 19.4466 13.5437 19.6176 13.878C19.9561 14.54 21.228 16 23.3636 16C25.4993 16 26.7712 14.54 27.1097 13.878C27.2806 13.5437 27.6245 13.3333 28 13.3333C28.3755 13.3333 28.7194 13.5437 28.8903 13.878C29.2498 14.5809 30.4809 16 32.3636 16C33.5478 16 34.4739 15.4775 35.1237 14.8696C35.4493 14.5652 35.6914 14.2514 35.8461 14.0004C35.9237 13.8744 35.9723 13.7757 35.998 13.7127L36 13.7077V9.99999L2 10Z" fill="#333333"/>
<path fill-rule="evenodd" clip-rule="evenodd" d="M7.51155 2C7.18089 2 6.8716 2.16346 6.68532 2.43666L1.82623 9.56334L0.173773 8.43666L5.03287 1.30999C5.5917 0.490377 6.51955 0 7.51155 0H30.2449C31.2126 0 32.1209 0.466805 32.6842 1.25366L37.8131 8.41789L36.1869 9.58211L31.058 2.41789C30.8702 2.1556 30.5674 2 30.2449 2H7.51155Z" fill="#333333"/>
<path fill-rule="evenodd" clip-rule="evenodd" d="M36 16V32C36 33.6569 34.6569 35 33 35H5C3.34315 35 2 33.6569 2 32V16.5373H4V32C4 32.5523 4.44771 33 5 33H33C33.5523 33 34 32.5523 34 32V16H36Z" fill="#333333"/>
<path fill-rule="evenodd" clip-rule="evenodd" d="M25.7154 21.6987L17.9014 29.6987C17.7133 29.8914 17.4553 30 17.186 30C16.9168 30 16.6588 29.8914 16.4707 29.6987L12.2846 25.413L13.7154 24.0156L17.186 27.5689L24.2846 20.3013L25.7154 21.6987Z" fill="#333333"/>
</svg>
