<svg width="17" height="17" viewBox="0 0 17 17" fill="none" xmlns="http://www.w3.org/2000/svg">
  <path
    d="M14.5772 3.98774C12.2658 3.76767 9.9405 3.6543 7.62212 3.6543C6.24775 3.6543 4.87339 3.72098 3.49902 3.85436L2.08301 3.98774"
    stroke="#333333" stroke-width="0.800254" stroke-linecap="round" stroke-linejoin="round" />
  <path
    d="M5.90088 3.31461L6.05359 2.441C6.16465 1.80747 6.24794 1.33398 7.42101 1.33398H9.23962C10.4127 1.33398 10.5029 1.83414 10.607 2.44767L10.7597 3.31461"
    stroke="#333333" stroke-width="0.800254" stroke-linecap="round" stroke-linejoin="round" />
  <path
    d="M13.0847 6.0957L12.6335 12.8112C12.5572 13.8582 12.4947 14.6718 10.5581 14.6718H6.10181C4.1652 14.6718 4.10273 13.8582 4.02638 12.8112L3.5752 6.0957"
    stroke="#333333" stroke-width="0.800254" stroke-linecap="round" stroke-linejoin="round" />
  <path d="M7.17041 11.0039H9.48184" stroke="#333333" stroke-width="0.800254" stroke-linecap="round"
    stroke-linejoin="round" />
  <path d="M6.59424 8.33691H10.0649" stroke="#333333" stroke-width="0.800254" stroke-linecap="round"
    stroke-linejoin="round" />
</svg>