<svg width="31" height="30" viewBox="0 0 31 30" fill="none" xmlns="http://www.w3.org/2000/svg">
<path fill-rule="evenodd" clip-rule="evenodd" d="M6.15492 1.37405C5.78294 1.37405 5.43473 1.5591 5.22355 1.86901L1.55768 7.24866C1.42742 7.43981 1.35766 7.66653 1.35766 7.89873V27.4809C1.35766 28.1133 1.8642 28.626 2.48905 28.626H28.5109C29.1358 28.626 29.6423 28.1133 29.6423 27.4809V7.92192C29.6423 7.68073 29.5671 7.4457 29.4273 7.25035L25.5616 1.84751C25.3488 1.55012 25.008 1.37405 24.6452 1.37405H6.15492ZM4.1059 1.08892C4.57051 0.407113 5.33657 0 6.15492 0H24.6452C25.4433 0 26.1931 0.387368 26.6612 1.04162L30.5269 6.44445C30.8344 6.87423 31 7.3913 31 7.92192V27.4809C31 28.8722 29.8856 30 28.5109 30H2.48905C1.11439 30 0 28.8722 0 27.4809V7.89873C0 7.38788 0.153464 6.8891 0.440033 6.46856L4.1059 1.08892Z" fill="#333333"/>
<path fill-rule="evenodd" clip-rule="evenodd" d="M30.3212 8.01527H0.678832V6.64122H30.3212V8.01527Z" fill="#333333"/>
<path fill-rule="evenodd" clip-rule="evenodd" d="M14.708 7.32824V0.458015H16.0657V7.32824H14.708Z" fill="#333333"/>
<path fill-rule="evenodd" clip-rule="evenodd" d="M12.9253 12.5676C13.1904 12.8359 13.1904 13.2709 12.9253 13.5392L10.4637 16.0305L12.9253 18.5218C13.1904 18.7901 13.1904 19.2251 12.9253 19.4934C12.6602 19.7617 12.2303 19.7617 11.9652 19.4934L9.02364 16.5163C8.75854 16.248 8.75854 15.813 9.02364 15.5447L11.9652 12.5676C12.2303 12.2993 12.6602 12.2993 12.9253 12.5676Z" fill="#333333"/>
<path fill-rule="evenodd" clip-rule="evenodd" d="M8.82482 16.0305C8.82482 15.6511 9.12874 15.3435 9.50365 15.3435H18.3285C19.5128 15.3435 20.4565 15.81 21.1002 16.5388C21.7331 17.2554 22.0485 18.1929 22.062 19.112C22.0754 20.0313 21.787 20.9774 21.1536 21.7026C20.5089 22.4408 19.549 22.9008 18.3285 22.9008H14.708C14.3331 22.9008 14.0292 22.5932 14.0292 22.2137C14.0292 21.8343 14.3331 21.5267 14.708 21.5267H18.3285C19.1897 21.5267 19.7685 21.2138 20.1364 20.7926C20.5155 20.3585 20.7136 19.7588 20.7045 19.1323C20.6953 18.5056 20.479 17.8973 20.0879 17.4545C19.7077 17.024 19.1353 16.7176 18.3285 16.7176H9.50365C9.12874 16.7176 8.82482 16.41 8.82482 16.0305Z" fill="#333333"/>
</svg>
