<svg width="36" height="47" viewBox="0 0 36 47" fill="none" xmlns="http://www.w3.org/2000/svg">
<path d="M22.9178 0.545471H19.6311C21.3609 1.30433 24.8206 4.01287 24.8206 8.77617C24.8206 13.5395 22.5142 16.5982 21.3609 17.5322C22.8601 18.6413 25.8585 22.3656 25.8585 28.3897C25.8585 34.4139 22.8601 37.3209 21.3609 38.0214H23.6097C27.5883 38.0214 35.5455 35.6748 35.5455 28.3897C35.5455 21.1047 28.7415 18.116 25.3395 17.5322C27.8766 16.9485 32.9508 14.38 32.9508 8.77617C32.9508 0.895714 24.8206 0.545471 22.9178 0.545471Z" fill="#2B9B73"/>
<path d="M1.85823 0.545471H18.091C16.6364 1.07064 13.7273 2.85622 13.7273 5.79718V34.8566C13.7273 43.6795 5.00005 46.1186 0.636414 46.2353C2.49823 45.7101 6.22187 43.1543 6.22187 37.1324V5.79718C6.22187 2.01595 3.31278 0.720528 1.85823 0.545471Z" fill="#2B9B73"/>
</svg>